# xmcd
#
# Track frame offsets:
#	150
#	15622
#	30061
#	46711
#	61836
#	79821
#	95940
#	113507
#	129457
#	145677
#
# Disc length: 2166 seconds
#
# Revision: 1
# Processed by: cddbd v1.5.2PL0 Copyright (c) Steve Scherf et al.
# Submitted via: EZCDAudioConverter 6.0.2.1
#
DISCID=7008740a
DTITLE=Lonestar - Never Enders
DYEAR=2016
DGENRE=Country
TTITLE0=Never Enders
TTITLE1=I Know It Was You
TTITLE2=My Own Hometown
TTITLE3=Twice
TTITLE4=This Time
TTITLE5=I've Been Wrong Before
TTITLE6=I Want A Love
TTITLE7=Us
TTITLE8=Here We Go Again
TTITLE9=Boomerang
EXTD=
EXTT0=
EXTT1=
EXTT2=
EXTT3=
EXTT4=
EXTT5=
EXTT6=
EXTT7=
EXTT8=
EXTT9=
PLAYORDER=
